#tb 0: 1/25
0,          0,          0,        1,   518400, 0x89407f55
0,          2,          2,        1,   518400, 0xaa896afd
0,          3,          3,        1,   518400, 0x0e69ff59
0,          4,          4,        1,   518400, 0x0c30bfa0
0,          5,          5,        1,   518400, 0x1a5b6a69
0,          6,          6,        1,   518400, 0x23470858
0,          7,          7,        1,   518400, 0x9a4e3c54
0,          8,          8,        1,   518400, 0xad63160b
0,          9,          9,        1,   518400, 0x0fcfeebc
0,         10,         10,        1,   518400, 0x20b31777
0,         11,         11,        1,   518400, 0x9d79df09
0,         12,         12,        1,   518400, 0x3e86766f
0,         13,         13,        1,   518400, 0x638a8746
0,         14,         14,        1,   518400, 0x7a6c1a0e
0,         15,         15,        1,   518400, 0x306f6cef
0,         16,         16,        1,   518400, 0x81f81281
0,         17,         17,        1,   518400, 0x49ab5bf5
0,         18,         18,        1,   518400, 0x8f316e44
0,         19,         19,        1,   518400, 0x95ae00c9
0,         20,         20,        1,   518400, 0xf71bb7f5
0,         21,         21,        1,   518400, 0x5205ea68
0,         22,         22,        1,   518400, 0x74a1d8b9
0,         23,         23,        1,   518400, 0xa3217616
0,         24,         24,        1,   518400, 0x2b28bbf8
0,         25,         25,        1,   518400, 0xf024872a
0,         26,         26,        1,   518400, 0x2fdbaaf3
0,         27,         27,        1,   518400, 0xa3a2418e
0,         28,         28,        1,   518400, 0x55bfe435
0,         29,         29,        1,   518400, 0x50fb6c94
0,         30,         30,        1,   518400, 0x5584bb40
